<svg xmlns="http://www.w3.org/2000/svg" xmlns:xlink="http://www.w3.org/1999/xlink" style="display:none">
  <!-- Frameworks -->

  <!-- Laravel Icon -->
  <symbol id="laravel" viewBox="0 0 264.00 264.00">
    <g id="SVGRepo_bgCarrier" stroke-width="0"></g><g id="SVGRepo_tracerCarrier" stroke-linecap="round" stroke-linejoin="round"></g><g id="SVGRepo_iconCarrier"> <g> <path d="M255.855641,59.619717 C255.950565,59.9710596 256,60.3333149 256,60.6972536 L256,117.265345 C256,118.743206 255.209409,120.108149 253.927418,120.843385 L206.448786,148.178786 L206.448786,202.359798 C206.448786,203.834322 205.665123,205.195421 204.386515,205.937838 L105.27893,262.990563 C105.05208,263.119455 104.804608,263.201946 104.557135,263.289593 C104.464333,263.320527 104.376687,263.377239 104.278729,263.403017 C103.585929,263.58546 102.857701,263.58546 102.164901,263.403017 C102.051476,263.372083 101.948363,263.310215 101.840093,263.26897 C101.613244,263.186479 101.376082,263.1143 101.159544,262.990563 L2.07258227,205.937838 C0.7913718,205.201819 0,203.837372 0,202.359798 L0,32.6555248 C0,32.2843161 0.0515567729,31.9234187 0.144358964,31.5728326 C0.175293028,31.454252 0.24747251,31.3459828 0.288717928,31.2274022 C0.366053087,31.0108638 0.438232569,30.7891697 0.55165747,30.5880982 C0.628992629,30.4540506 0.742417529,30.3457814 0.83521972,30.2220451 C0.953800298,30.0570635 1.06206952,29.8869261 1.20127281,29.7425672 C1.31985339,29.6239866 1.4745237,29.5363401 1.60857131,29.4332265 C1.75808595,29.3094903 1.89213356,29.1754427 2.06227091,29.0774848 L2.06742659,29.0774848 L51.6134853,0.551122364 C52.8901903,-0.183535768 54.4613221,-0.183535768 55.7380271,0.551122364 L105.284086,29.0774848 L105.294397,29.0774848 C105.459379,29.1805983 105.598582,29.3094903 105.748097,29.4280708 C105.882144,29.5311844 106.031659,29.6239866 106.15024,29.7374115 C106.294599,29.8869261 106.397712,30.0570635 106.521448,30.2220451 C106.609095,30.3457814 106.727676,30.4540506 106.799855,30.5880982 C106.918436,30.7943253 106.985459,31.0108638 107.06795,31.2274022 C107.109196,31.3459828 107.181375,31.454252 107.212309,31.5779883 C107.307234,31.9293308 107.355765,32.2915861 107.356668,32.6555248 L107.356668,138.651094 L148.643332,114.878266 L148.643332,60.6920979 C148.643332,60.3312005 148.694889,59.9651474 148.787691,59.619717 C148.823781,59.4959808 148.890804,59.3877116 148.93205,59.269131 C149.014541,59.0525925 149.08672,58.8308984 149.200145,58.629827 C149.27748,58.4957794 149.390905,58.3875102 149.478552,58.2637739 C149.602288,58.0987922 149.705401,57.9286549 149.84976,57.7842959 C149.968341,57.6657153 150.117856,57.5780688 150.251903,57.4749553 C150.406573,57.351219 150.540621,57.2171714 150.705603,57.1192136 L150.710758,57.1192136 L200.261973,28.5928511 C201.538395,27.8571345 203.110093,27.8571345 204.386515,28.5928511 L253.932573,57.1192136 C254.107866,57.2223271 254.241914,57.351219 254.396584,57.4697996 C254.525476,57.5729132 254.674991,57.6657153 254.793572,57.7791402 C254.93793,57.9286549 255.041044,58.0987922 255.16478,58.2637739 C255.257582,58.3875102 255.371007,58.4957794 255.443187,58.629827 C255.561767,58.8308984 255.628791,59.0525925 255.711282,59.269131 C255.757683,59.3877116 255.824707,59.4959808 255.855641,59.619717 Z M247.740605,114.878266 L247.740605,67.8378666 L230.402062,77.8192579 L206.448786,91.6106946 L206.448786,138.651094 L247.745761,114.878266 L247.740605,114.878266 Z M198.194546,199.97272 L198.194546,152.901386 L174.633101,166.357704 L107.351512,204.757188 L107.351512,252.27191 L198.194546,199.97272 Z M8.25939501,39.7961379 L8.25939501,199.97272 L99.0921175,252.266755 L99.0921175,204.762344 L51.6392637,177.906421 L51.6237967,177.89611 L51.603174,177.885798 C51.443348,177.792996 51.3093004,177.658949 51.1597857,177.545524 C51.0308938,177.44241 50.8813791,177.359919 50.7679542,177.246494 L50.7576429,177.231027 C50.6235953,177.102135 50.5307931,176.942309 50.4173682,176.79795 C50.3142546,176.658747 50.1905184,176.540167 50.1080276,176.395808 L50.1028719,176.380341 C50.0100697,176.22567 49.9533572,176.040066 49.8863334,175.864773 C49.8193096,175.710103 49.7316631,175.565744 49.6904177,175.400762 L49.6904177,175.395606 C49.6388609,175.19969 49.6285496,174.993463 49.6079269,174.792392 C49.5873041,174.637722 49.5460587,174.483051 49.5460587,174.328381 L49.5460587,174.31807 L49.5460587,63.5689658 L25.5979377,49.7723734 L8.25939501,39.8012935 L8.25939501,39.7961379 Z M53.6809119,8.89300821 L12.3994039,32.6555248 L53.6706006,56.4180414 L94.9469529,32.6503692 L53.6706006,8.89300821 L53.6809119,8.89300821 Z M75.1491521,157.19091 L99.0972731,143.404629 L99.0972731,39.7961379 L81.7587304,49.7775291 L57.8054537,63.5689658 L57.8054537,167.177457 L75.1491521,157.19091 Z M202.324244,36.934737 L161.047891,60.6972536 L202.324244,84.4597702 L243.59544,60.6920979 L202.324244,36.934737 Z M198.194546,91.6106946 L174.24127,77.8192579 L156.902727,67.8378666 L156.902727,114.878266 L180.850848,128.664547 L198.194546,138.651094 L198.194546,91.6106946 Z M103.216659,197.616575 L163.759778,163.052915 L194.023603,145.781396 L152.778185,122.034346 L105.289242,149.374903 L62.0073307,174.292291 L103.216659,197.616575 Z" fill="#FF2D20"> </path> </g> </g>
  </symbol> 
  <!-- _______________________________________________________________________________________________________________________________________________________________ -->
  
  <!-- Frameworks Frontend -->

  <!-- React Icon -->
  <symbol id="react" viewBox="0 0 569 512">
    <g fill="none" fill-rule="evenodd">
      <g transform="translate(-227, -256)" fill="#58C4DC" fill-rule="nonzero">
        <g transform="translate(227, 256)">
          <path d="M285.5,201 C255.400481,201 231,225.400481 231,255.5 C231,285.599519 255.400481,310 285.5,310 C315.599519,310 340,285.599519 340,255.5 C340,225.400481 315.599519,201 285.5,201" id="Path"></path>
          <path d="M568.959856,255.99437 C568.959856,213.207656 529.337802,175.68144 466.251623,150.985214 C467.094645,145.423543 467.85738,139.922107 468.399323,134.521063 C474.621631,73.0415145 459.808523,28.6686204 426.709856,9.5541429 C389.677085,-11.8291748 337.36955,3.69129898 284.479928,46.0162134 C231.590306,3.69129898 179.282771,-11.8291748 142.25,9.5541429 C109.151333,28.6686204 94.3382249,73.0415145 100.560533,134.521063 C101.102476,139.922107 101.845139,145.443621 102.708233,151.02537 C97.4493791,153.033193 92.2908847,155.161486 87.3331099,157.39017 C31.0111824,182.708821 0,217.765415 0,255.99437 C0,298.781084 39.6220545,336.307301 102.708233,361.003527 C101.845139,366.565197 101.102476,372.066633 100.560533,377.467678 C94.3382249,438.947226 109.151333,483.32012 142.25,502.434597 C153.629683,508.887578 166.52439,512.186771 179.603923,511.991836 C210.956328,511.991836 247.567589,495.487529 284.479928,465.972527 C321.372196,495.487529 358.003528,511.991836 389.396077,511.991836 C402.475265,512.183856 415.36922,508.884856 426.75,502.434597 C459.848667,483.32012 474.661775,438.947226 468.439467,377.467678 C467.897524,372.066633 467.134789,366.565197 466.291767,361.003527 C529.377946,336.347457 569,298.761006 569,255.99437 M389.155214,27.1025182 C397.565154,26.899606 405.877839,28.9368502 413.241569,33.0055186 C436.223966,46.2772304 446.540955,82.2775015 441.522965,131.770345 C441.181741,135.143488 440.780302,138.556788 440.298575,141.990165 C414.066922,134.08804 387.205771,128.452154 360.010724,125.144528 C343.525021,103.224055 325.192524,82.7564475 305.214266,63.9661533 C336.586743,39.7116483 366.032313,27.1025182 389.135142,27.1025182 M378.356498,310.205598 C368.204912,327.830733 357.150626,344.919965 345.237759,361.405091 C325.045049,363.479997 304.758818,364.51205 284.459856,364.497299 C264.167589,364.51136 243.888075,363.479308 223.702025,361.405091 C211.820914,344.919381 200.80007,327.83006 190.683646,310.205598 C180.532593,292.629285 171.306974,274.534187 163.044553,255.99437 C171.306974,237.454554 180.532593,219.359455 190.683646,201.783142 C200.784121,184.229367 211.770999,167.201087 223.601665,150.764353 C243.824636,148.63809 264.145559,147.579168 284.479928,147.591877 C304.772146,147.579725 325.051559,148.611772 345.237759,150.68404 C357.109048,167.14607 368.136094,184.201112 378.27621,201.783142 C388.419418,219.363718 397.644825,237.458403 405.915303,255.99437 C397.644825,274.530337 388.419418,292.625022 378.27621,310.205598 M419.724813,290.127366 C426.09516,307.503536 431.324985,325.277083 435.380944,343.334682 C417.779633,348.823635 399.836793,353.149774 381.668372,356.285142 C388.573127,345.871232 395.263781,335.035679 401.740334,323.778483 C408.143291,312.655143 414.144807,301.431411 419.805101,290.207679 M246.363271,390.377981 C258.848032,391.140954 271.593728,391.582675 284.5,391.582675 C297.406272,391.582675 310.232256,391.140954 322.737089,390.377981 C310.880643,404.583418 298.10766,417.997563 284.5,430.534446 C270.921643,417.999548 258.18192,404.585125 246.363271,390.377981 Z M187.311556,356.244986 C169.137286,353.123646 151.187726,348.810918 133.578912,343.334682 C137.618549,325.305649 142.828222,307.559058 149.174827,290.207679 C154.754833,301.431411 160.736278,312.655143 167.239594,323.778483 C173.74291,334.901824 180.467017,345.864539 187.311556,356.285142 M149.174827,221.760984 C142.850954,204.473938 137.654787,186.794745 133.619056,168.834762 C151.18418,163.352378 169.085653,159.013101 187.211197,155.844146 C180.346585,166.224592 173.622478,176.986525 167.139234,188.210257 C160.65599,199.433989 154.734761,210.517173 149.074467,221.760984 M322.616657,121.590681 C310.131896,120.827708 297.3862,120.385987 284.379568,120.385987 C271.479987,120.385987 258.767744,120.787552 246.242839,121.590681 C258.061488,107.383537 270.801211,93.9691137 284.379568,81.4342157 C297.99241,93.9658277 310.765727,107.380324 322.616657,121.590681 Z M401.70019,188.210257 C395.196875,176.939676 388.472767,166.09743 381.527868,155.68352 C399.744224,158.819049 417.734224,163.151949 435.380944,168.654058 C431.331963,186.680673 426.122466,204.426664 419.785029,221.781062 C414.205023,210.55733 408.203506,199.333598 401.720262,188.230335 M127.517179,131.790423 C122.438973,82.3176579 132.816178,46.2973086 155.778503,33.0255968 C163.144699,28.9632474 171.455651,26.9264282 179.864858,27.1225964 C202.967687,27.1225964 232.413257,39.7317265 263.785734,63.9862316 C243.794133,82.7898734 225.448298,103.270812 208.949132,125.204763 C181.761691,128.528025 154.90355,134.14313 128.661281,141.990165 C128.199626,138.556788 127.778115,135.163566 127.456963,131.790423 M98.4529773,182.106474 C101.54406,180.767925 104.695358,179.429376 107.906872,178.090828 C114.220532,204.735668 122.781793,230.7969 133.498624,255.99437 C122.761529,281.241316 114.193296,307.357063 107.8868,334.058539 C56.7434387,313.076786 27.0971497,284.003505 27.0971497,255.99437 C27.0971497,229.450947 53.1907013,202.526037 98.4529773,182.106474 Z M155.778503,478.963143 C132.816178,465.691432 122.438973,429.671082 127.517179,380.198317 C127.838331,376.825174 128.259842,373.431953 128.721497,369.978497 C154.953686,377.878517 181.814655,383.514365 209.009348,386.824134 C225.500295,408.752719 243.832321,429.233234 263.805806,448.042665 C220.069,481.834331 180.105722,492.97775 155.838719,478.963143 M441.502893,380.198317 C446.520883,429.691161 436.203894,465.691432 413.221497,478.963143 C388.974566,493.017906 348.991216,481.834331 305.274481,448.042665 C325.241364,429.232737 343.566681,408.752215 360.050868,386.824134 C387.245915,383.516508 414.107066,377.880622 440.338719,369.978497 C440.820446,373.431953 441.221885,376.825174 441.563109,380.198317 M461.193488,334.018382 C454.869166,307.332523 446.294494,281.231049 435.561592,255.99437 C446.289797,230.744081 454.857778,204.629101 461.173416,177.930202 C512.216417,198.911955 541.942994,227.985236 541.942994,255.99437 C541.942994,284.003505 512.296705,313.076786 461.153344,334.058539" id="Shape"></path>
        </g>
      </g>
    </g>
  </symbol>

  <!-- Node Icon -->
  <symbol id="node" viewBox="0 0 256 292">
    <defs>
      <linearGradient id="a" x1="68.188%" x2="27.823%" y1="17.487%" y2="89.755%"><stop offset="0%" stop-color="#41873F"/><stop offset="32.88%" stop-color="#418B3D"/><stop offset="63.52%" stop-color="#419637"/><stop offset="93.19%" stop-color="#3FA92D"/><stop offset="100%" stop-color="#3FAE2A"/></linearGradient>
      <linearGradient id="c" x1="43.277%" x2="159.245%" y1="55.169%" y2="-18.306%"><stop offset="13.76%" stop-color="#41873F"/><stop offset="40.32%" stop-color="#54A044"/><stop offset="71.36%" stop-color="#66B848"/><stop offset="90.81%" stop-color="#6CC04A"/></linearGradient>
      <linearGradient id="f" x1="-4.389%" x2="101.499%" y1="49.997%" y2="49.997%"><stop offset="9.192%" stop-color="#6CC04A"/><stop offset="28.64%" stop-color="#66B848"/><stop offset="59.68%" stop-color="#54A044"/><stop offset="86.24%" stop-color="#41873F"/></linearGradient>
      <path id="b" d="M134.923 1.832c-4.344-2.443-9.502-2.443-13.846 0L6.787 67.801C2.443 70.244 0 74.859 0 79.745v132.208c0 4.887 2.715 9.502 6.787 11.945l114.29 65.968c4.344 2.444 9.502 2.444 13.846 0l114.29-65.968c4.344-2.443 6.787-7.058 6.787-11.945V79.745c0-4.886-2.715-9.501-6.787-11.944L134.923 1.832Z"/>
      <path id="e" d="M134.923 1.832c-4.344-2.443-9.502-2.443-13.846 0L6.787 67.801C2.443 70.244 0 74.859 0 79.745v132.208c0 4.887 2.715 9.502 6.787 11.945l114.29 65.968c4.344 2.444 9.502 2.444 13.846 0l114.29-65.968c4.344-2.443 6.787-7.058 6.787-11.945V79.745c0-4.886-2.715-9.501-6.787-11.944L134.923 1.832Z"/>
    </defs>
    <path fill="url(#a)" d="M134.923 1.832c-4.344-2.443-9.502-2.443-13.846 0L6.787 67.801C2.443 70.244 0 74.859 0 79.745v132.208c0 4.887 2.715 9.502 6.787 11.945l114.29 65.968c4.344 2.444 9.502 2.444 13.846 0l114.29-65.968c4.344-2.443 6.787-7.058 6.787-11.945V79.745c0-4.886-2.715-9.501-6.787-11.944L134.923 1.832Z"/>
    <mask id="d" fill="#fff"><use xlink:href="#b"/></mask>
    <path fill="url(#c)" d="M249.485 67.8 134.65 1.833c-1.086-.542-2.443-1.085-3.529-1.357L2.443 220.912c1.086 1.357 2.444 2.443 3.8 3.258l114.834 65.968c3.258 1.9 7.059 2.443 10.588 1.357L252.47 70.515c-.815-1.086-1.9-1.9-2.986-2.714Z" mask="url(#d)"/>
    <mask id="g" fill="#fff"><use xlink:href="#e"/></mask>
    <path fill="url(#f)" d="M249.756 223.898c3.258-1.9 5.701-5.158 6.787-8.687L130.579.204c-3.258-.543-6.787-.272-9.773 1.628L6.786 67.53l122.979 224.238c1.628-.272 3.529-.815 5.158-1.63l114.833-66.239Z" mask="url(#g)"/>
  </symbol>
  <!-- _______________________________________________________________________________________________________________________________________________________________ -->
  
  <!-- Desarrollo web -->

  <!-- HTML Icon -->
  <symbol id="html" viewBox="0 0 452 520">
    <path fill="#e34f26" d="M41 460L0 0h451l-41 460-185 52" />
    <path fill="#ef652a" d="M226 472l149-41 35-394H226" />
    <path fill="#ecedee" d="M226 208h-75l-5-58h80V94H84l15 171h127zm0 147l-64-17-4-45h-56l7 89 117 32z"/>
    <path fill="#fff" d="M226 265h69l-7 73-62 17v59l115-32 16-174H226zm0-171v56h136l5-56z"/>
  </symbol>

  <!-- CSS Icon -->
  <symbol id="css" viewBox="0 0 1000 1000">
    <path fill="#639" d="M0 0h840a160 160 0 0 1 160 160v680a160 160 0 0 1-160 160H160A160 160 0 0 1 0 840V0Z"/>
    <path fill="#fff" d="M816.54 919.9c-32.39 0-57.16-9.42-74.5-28.35-17.15-19.03-26.08-46.18-26.88-81.64h69.8c.4 31.36 11.42 47.08 33.08 47.08 11.04 0 18.86-3.5 23.37-10.42 4.41-6.9 6.72-17.93 6.72-33.05 0-12.02-3.01-22.04-8.83-29.95a73.2 73.2 0 0 0-29.48-21.14L783.95 750c-23.06-11.02-39.81-24.04-50.14-39.27-10.03-15.13-15.04-36.36-15.04-63.5 0-30.36 8.83-55 26.37-73.94 18.05-18.93 42.62-28.34 74-28.34 30.3 0 53.76 9.31 70.3 27.84 16.85 18.64 25.67 45.28 26.38 80.14h-67.19c.4-11.4-1.9-22.72-6.72-33.06-3.8-7.6-11.23-11.41-22.26-11.41-19.65 0-29.48 11.71-29.48 35.05 0 11.83 2.4 21.04 7.22 28.05A65.18 65.18 0 0 0 822.76 689l24.77 10.92c25.57 11.72 44.02 26.05 55.35 43.38 11.43 17.23 17.05 40.27 17.05 69.12 0 34.56-9.03 61.1-27.38 79.63-18.25 18.53-43.62 27.85-76 27.85Zm-225.42 0c-32.4 0-57.16-9.42-74.51-28.35-17.15-19.03-26.07-46.18-26.87-81.64h69.79c.4 31.36 11.43 47.08 33.1 47.08 11.02 0 18.84-3.5 23.25-10.42 4.52-6.9 6.72-17.93 6.72-33.05 0-12.02-2.9-22.04-8.72-29.95a73.2 73.2 0 0 0-29.48-21.14L558.53 750c-23.07-11.02-39.81-24.04-50.14-39.27-10.03-15.13-15.04-36.36-15.04-63.5 0-30.36 8.82-55 26.37-73.94 18.05-18.93 42.62-28.34 74-28.34 30.29 0 53.75 9.31 70.2 27.84 17.05 18.64 25.77 45.28 26.47 80.14h-67.18c.4-11.4-1.9-22.72-6.72-33.06-3.81-7.6-11.23-11.41-22.26-11.41-19.66 0-29.49 11.71-29.49 35.05 0 11.83 2.41 21.04 7.22 28.05A65.18 65.18 0 0 0 597.33 689l24.77 10.92c25.57 11.72 44.02 26.05 55.36 43.38 11.33 17.23 17.04 40.27 17.04 69.12 0 34.56-9.12 61.1-27.37 79.63-18.25 18.53-43.62 27.85-76.01 27.85Zm-234.75 0c-31.7 0-56.86-8.62-75.51-25.85-18.65-17.12-27.88-42.87-27.88-76.93V648.83c0-33.85 9.83-59.5 29.48-77.13 19.96-17.43 46.13-26.24 78.52-26.24 31.39 0 56.15 9.01 74.5 26.84 18.56 17.93 27.88 44.58 27.88 80.14v13.32h-73.9v-12.92c0-13.72-3.01-23.84-8.83-30.45a26.46 26.46 0 0 0-21.66-10.32c-12.03 0-20.55 4.1-25.37 12.42a79.04 79.04 0 0 0-6.72 36.66v146.26c0 30.55 10.74 46.08 32.1 46.38 10.02 0 17.54-3.61 22.76-10.82a51.74 51.74 0 0 0 7.72-30.46V801.6h73.9v11.42c0 23.74-4.61 43.57-13.94 59.4a88.8 88.8 0 0 1-38.2 35.66 121.46 121.46 0 0 1-54.85 11.82Z"/>
  </symbol>

  <!-- JavaScript Icon -->
  <symbol id="javascript" viewBox="0 0 32 32">
    <g id="SVGRepo_bgCarrier" stroke-width="0"></g><g id="SVGRepo_tracerCarrier" stroke-linecap="round" stroke-linejoin="round"></g><g id="SVGRepo_iconCarrier"><title>file_type_js_official</title><rect x="2" y="2" width="28" height="28" style="fill:#f5de19"></rect><path d="M20.809,23.875a2.866,2.866,0,0,0,2.6,1.6c1.09,0,1.787-.545,1.787-1.3,0-.9-.716-1.222-1.916-1.747l-.658-.282c-1.9-.809-3.16-1.822-3.16-3.964,0-1.973,1.5-3.476,3.853-3.476a3.889,3.889,0,0,1,3.742,2.107L25,18.128A1.789,1.789,0,0,0,23.311,17a1.145,1.145,0,0,0-1.259,1.128c0,.789.489,1.109,1.618,1.6l.658.282c2.236.959,3.5,1.936,3.5,4.133,0,2.369-1.861,3.667-4.36,3.667a5.055,5.055,0,0,1-4.795-2.691Zm-9.295.228c.413.733.789,1.353,1.693,1.353.864,0,1.41-.338,1.41-1.653V14.856h2.631v8.982c0,2.724-1.6,3.964-3.929,3.964a4.085,4.085,0,0,1-3.947-2.4Z"></path></g>
  </symbol>
  

  <!-- TypeScript Icon -->
  <symbol id="typescript" viewBox="0 0 256 256">
    <rect width="256" height="256" rx="20" fill="#3178C6"/>
    <path d="M150.518 200.475v27.62c4.492 2.302 9.805 4.028 15.938 5.179 6.133 1.151 12.597 1.726 19.393 1.726 6.622 0 12.914-.633 18.874-1.899 5.96-1.266 11.187-3.352 15.678-6.257 4.492-2.906 8.048-6.704 10.669-11.394 2.62-4.689 3.93-10.486 3.93-17.391 0-5.006-.749-9.394-2.246-13.163a30.748 30.748 0 0 0-6.479-10.055c-2.821-2.935-6.205-5.567-10.149-7.898-3.945-2.33-8.394-4.531-13.347-6.602-3.628-1.497-6.881-2.949-9.761-4.359-2.879-1.41-5.327-2.848-7.342-4.316-2.016-1.467-3.571-3.021-4.665-4.661-1.094-1.64-1.641-3.495-1.641-5.567 0-1.899.489-3.61 1.468-5.135s2.362-2.834 4.147-3.927c1.785-1.094 3.973-1.942 6.565-2.547 2.591-.604 5.471-.906 8.638-.906 2.304 0 4.737.173 7.299.518 2.563.345 5.14.877 7.732 1.597a53.669 53.669 0 0 1 7.558 2.719 41.7 41.7 0 0 1 6.781 3.797v-25.807c-4.204-1.611-8.797-2.805-13.778-3.582-4.981-.777-10.697-1.165-17.147-1.165-6.565 0-12.784.705-18.658 2.115-5.874 1.409-11.043 3.61-15.506 6.602-4.463 2.993-7.99 6.805-10.582 11.437-2.591 4.632-3.887 10.17-3.887 16.615 0 8.228 2.375 15.248 7.127 21.06 4.751 5.811 11.963 10.731 21.638 14.759a291.458 291.458 0 0 1 10.625 4.575c3.283 1.496 6.119 3.049 8.509 4.66 2.39 1.611 4.276 3.366 5.658 5.265 1.382 1.899 2.073 4.057 2.073 6.474a9.901 9.901 0 0 1-1.296 4.963c-.863 1.524-2.174 2.848-3.93 3.97-1.756 1.122-3.945 1.999-6.565 2.632-2.62.633-5.687.95-9.2.95-5.989 0-11.92-1.05-17.794-3.151-5.875-2.1-11.317-5.25-16.327-9.451Zm-46.036-68.733H140V109H41v22.742h35.345V233h28.137V131.742Z" fill="#FFF"/>
  </symbol>

  <!-- PHP Icon -->
  <symbol id="php" viewBox="0 0 24">
    <g id="SVGRepo_bgCarrier" stroke-width="0"></g><g id="SVGRepo_tracerCarrier" stroke-linecap="round" stroke-linejoin="round"></g><g id="SVGRepo_iconCarrier"> <circle cx="16" cy="16" r="14" fill="#8892BF"></circle> <path d="M14.4392 10H16.1192L15.6444 12.5242H17.154C17.9819 12.5419 18.5986 12.7269 19.0045 13.0793C19.4184 13.4316 19.5402 14.1014 19.3698 15.0881L18.5541 19.4889H16.8497L17.6288 15.2863C17.7099 14.8457 17.6856 14.533 17.5558 14.348C17.426 14.163 17.146 14.0705 16.7158 14.0705L15.3644 14.0573L14.3661 19.4889H12.6861L14.4392 10Z" fill="white"></path> <path fill-rule="evenodd" clip-rule="evenodd" d="M6.74092 12.5243H10.0036C10.9612 12.533 11.6552 12.8327 12.0854 13.4229C12.5156 14.0132 12.6576 14.8193 12.5115 15.8414C12.4548 16.3085 12.3289 16.7665 12.1341 17.2159C11.9474 17.6652 11.6878 18.0704 11.355 18.4317C10.9491 18.8898 10.5149 19.1805 10.0523 19.304C9.58969 19.4274 9.11076 19.489 8.61575 19.489H7.15484L6.69222 22H5L6.74092 12.5243ZM7.43485 17.9956L8.16287 14.0441H8.40879C8.49815 14.0441 8.5914 14.0396 8.6888 14.0309C9.33817 14.0221 9.87774 14.0882 10.308 14.2291C10.7462 14.37 10.8923 14.9031 10.7462 15.8282C10.5678 16.9296 10.2186 17.5727 9.69926 17.7577C9.1799 17.934 8.53053 18.0176 7.75138 18.0088H7.58094C7.53224 18.0088 7.48355 18.0043 7.43485 17.9956Z" fill="white"></path> <path fill-rule="evenodd" clip-rule="evenodd" d="M24.4365 12.5243H21.1738L19.4329 22H21.1251L21.5878 19.489H23.0487C23.5437 19.489 24.0226 19.4274 24.4852 19.304C24.9479 19.1805 25.382 18.8898 25.7879 18.4317C26.1207 18.0704 26.3803 17.6652 26.567 17.2159C26.7618 16.7665 26.8877 16.3085 26.9444 15.8414C27.0905 14.8193 26.9486 14.0132 26.5183 13.4229C26.0881 12.8327 25.3942 12.533 24.4365 12.5243ZM22.5958 14.0441L21.8678 17.9956C21.9165 18.0043 21.9652 18.0088 22.0139 18.0088H22.1843C22.9635 18.0176 23.6128 17.934 24.1322 17.7577C24.6515 17.5727 25.0007 16.9296 25.1792 15.8282C25.3253 14.9031 25.1792 14.37 24.7409 14.2291C24.3107 14.0882 23.7711 14.0221 23.1217 14.0309C23.0243 14.0396 22.9311 14.0441 22.8417 14.0441H22.5958Z" fill="white"></path> </g><path display="inline" d="M171.844,204.374c-11.137-12.748-28.856-19.123-53.146-19.123H37.96L0.5,377.99h41.984l9.96-51.241 h35.963c15.869,0,28.923-1.663,39.173-5.003c10.247-3.33,19.562-8.92,27.945-16.767c7.037-6.467,12.725-13.599,17.087-21.4 c4.354-7.797,7.448-16.401,9.278-25.812C186.333,234.919,182.98,217.124,171.844,204.374z M138.493,254.823 c-2.903,14.917-8.492,25.563-16.775,31.941c-8.288,6.38-20.897,9.569-37.822,9.569H58.354l15.678-80.667H102.8 c15.952,0,26.582,2.943,31.896,8.832C140.006,230.39,141.275,240.497,138.493,254.823z M337.828,237.059l-17.429,89.69h-42.317 l16.572-85.278c1.884-9.702,1.193-16.32-2.084-19.847c-3.272-3.529-10.242-5.296-20.9-5.296h-33.289l-21.458,110.421h-41.656 l37.46-192.739h41.656l-9.959,51.241h37.111c23.346,0,39.452,4.077,48.317,12.218C338.718,205.615,341.371,218.813,337.828,237.059 z M499.554,204.374c-11.137-12.748-28.856-19.123-53.142-19.123h-80.738l-37.46,192.739h41.984l9.96-51.241h35.963 c15.869,0,28.918-1.663,39.169-5.003c10.247-3.33,19.562-8.92,27.945-16.767c7.036-6.467,12.729-13.599,17.088-21.4 c4.354-7.797,7.447-16.401,9.277-25.812C514.042,234.919,510.694,217.124,499.554,204.374z M466.206,254.823 c-2.902,14.917-8.491,25.563-16.779,31.941c-8.284,6.38-20.896,9.569-37.822,9.569h-25.537l15.678-80.667h28.765 c15.952,0,26.581,2.943,31.899,8.832C467.72,230.39,468.984,240.497,466.206,254.823z"> </path> </g> </g>
  </symbol>

  <symbol id="php-png" viewBox="0 0 24">
    <g id="SVGRepo_bgCarrier" stroke-width="0"></g><g id="SVGRepo_tracerCarrier" stroke-linecap="round" stroke-linejoin="round"></g><g id="SVGRepo_iconCarrier"> <g id="5151e0c8492e5103c096af88a51e39be"> <path display="inline" d="M171.844,204.374c-11.137-12.748-28.856-19.123-53.146-19.123H37.96L0.5,377.99h41.984l9.96-51.241 h35.963c15.869,0,28.923-1.663,39.173-5.003c10.247-3.33,19.562-8.92,27.945-16.767c7.037-6.467,12.725-13.599,17.087-21.4 c4.354-7.797,7.448-16.401,9.278-25.812C186.333,234.919,182.98,217.124,171.844,204.374z M138.493,254.823 c-2.903,14.917-8.492,25.563-16.775,31.941c-8.288,6.38-20.897,9.569-37.822,9.569H58.354l15.678-80.667H102.8 c15.952,0,26.582,2.943,31.896,8.832C140.006,230.39,141.275,240.497,138.493,254.823z M337.828,237.059l-17.429,89.69h-42.317 l16.572-85.278c1.884-9.702,1.193-16.32-2.084-19.847c-3.272-3.529-10.242-5.296-20.9-5.296h-33.289l-21.458,110.421h-41.656 l37.46-192.739h41.656l-9.959,51.241h37.111c23.346,0,39.452,4.077,48.317,12.218C338.718,205.615,341.371,218.813,337.828,237.059 z M499.554,204.374c-11.137-12.748-28.856-19.123-53.142-19.123h-80.738l-37.46,192.739h41.984l9.96-51.241h35.963 c15.869,0,28.918-1.663,39.169-5.003c10.247-3.33,19.562-8.92,27.945-16.767c7.036-6.467,12.729-13.599,17.088-21.4 c4.354-7.797,7.447-16.401,9.277-25.812C514.042,234.919,510.694,217.124,499.554,204.374z M466.206,254.823 c-2.902,14.917-8.491,25.563-16.779,31.941c-8.284,6.38-20.896,9.569-37.822,9.569h-25.537l15.678-80.667h28.765 c15.952,0,26.581,2.943,31.899,8.832C467.72,230.39,468.984,240.497,466.206,254.823z"> </path> </g> </g> </g> </g>
  </symbol>

  <!-- Bootstrap -->
  <symbol id="bootstrap" viewBox="0 0 512 512">
    <g id="SVGRepo_bgCarrier" stroke-width="0"></g><g id="SVGRepo_tracerCarrier" stroke-linecap="round" stroke-linejoin="round"></g><g id="SVGRepo_iconCarrier"> <path fill-rule="evenodd" clip-rule="evenodd" d="M4.98488 2C3.61546 2 2.60217 3.19858 2.64753 4.49844C2.69105 5.74725 2.63451 7.36461 2.22732 8.68359C1.81892 10.0064 1.1282 10.8444 0 10.952V12.1666C1.1282 12.2742 1.81892 13.1122 2.22732 14.4351C2.63451 15.754 2.69105 17.3714 2.64753 18.6202C2.60217 19.9199 3.61546 21.1186 4.98508 21.1186H19.0169C20.3864 21.1186 21.3995 19.9201 21.3541 18.6202C21.3106 17.3714 21.3671 15.754 21.7743 14.4351C22.1829 13.1122 22.8718 12.2742 24 12.1666V10.952C22.8718 10.8444 22.1829 10.0064 21.7743 8.68359C21.3671 7.36481 21.3106 5.74725 21.3541 4.49844C21.3995 3.19878 20.3864 2 19.0169 2H4.98468H4.98488ZM16.2712 13.7687C16.2712 15.5586 14.9361 16.6441 12.7206 16.6441H8.94915C8.84127 16.6441 8.7378 16.6012 8.66152 16.5249C8.58523 16.4486 8.54237 16.3452 8.54237 16.2373V6.88136C8.54237 6.77347 8.58523 6.67001 8.66152 6.59372C8.7378 6.51743 8.84127 6.47458 8.94915 6.47458H12.6991C14.5464 6.47458 15.7588 7.47525 15.7588 9.01166C15.7588 10.09 14.9433 11.0555 13.9041 11.2245V11.2809C15.3187 11.4361 16.2712 12.4156 16.2712 13.7687ZM12.3094 7.76407H10.1589V10.8015H11.9701C13.3702 10.8015 14.1423 10.2377 14.1423 9.2299C14.1423 8.28556 13.4784 7.76407 12.3094 7.76407ZM10.1589 12.0068V15.3542H12.3885C13.8462 15.3542 14.6184 14.7692 14.6184 13.6699C14.6184 12.5704 13.8246 12.0066 12.2947 12.0066H10.1589V12.0068Z" fill="#000000"></path> </g>
  </symbol>
  

  <!-- _______________________________________________________________________________________________________________________________________________________________ -->
</svg>